<svg width="461.1599975585937px" height="147.28001708984374px" xmlns="http://www.w3.org/2000/svg" viewBox="19.420001220703142 1.3599914550781307 461.1599975585937 147.28001708984374" style="background: none;" preserveAspectRatio="xMidYMid"><defs><filter id="editing-hole" x="-100%" y="-100%" width="300%" height="300%"><feFlood flood-color="#000000" result="black"></feFlood><feMorphology operator="dilate" radius="2" in="SourceGraphic" result="erode"></feMorphology><feGaussianBlur in="erode" stdDeviation="4" result="blur"></feGaussianBlur><feOffset in="blur" dx="2" dy="2" result="offset"></feOffset><feComposite operator="atop" in="offset" in2="black" result="merge"></feComposite><feComposite operator="in" in="merge" in2="SourceGraphic" result="inner-shadow"></feComposite></filter></defs><g filter="url(#editing-hole)"><g transform="translate(89.05764770507812, 101.5844898223877)"><path d="M11.70-51.71L19.17-51.71L19.17-51.71Q18.51-50.13 17.72-47.48L17.72-47.48L17.72-47.48Q16.93-44.82 16.02-41.00L16.02-41.00L16.02-41.00Q15.19-37.18 14.40-33.37L14.40-33.37L14.40-33.37Q13.61-29.55 12.78-25.73L12.78-25.73L12.78-25.73Q11.95-21.91 11.21-18.18L11.21-18.18L11.21-18.18Q10.46-14.44 9.63-10.62L9.63-10.62L9.63-10.62Q8.05-3.07 8.13 0L8.13 0L0.75 0L0.75 0Q1.49-1.58 2.28-4.19L2.28-4.19L2.28-4.19Q3.07-6.81 3.90-10.62L3.90-10.62L3.90-10.62Q4.73-14.44 5.56-18.26L5.56-18.26L5.56-18.26Q6.39-22.08 7.22-25.90L7.22-25.90L7.22-25.90Q10.29-40.92 10.46-41.09L10.46-41.09L10.46-41.09Q11.79-48.64 11.70-51.71L11.70-51.71ZM36.94-50.80L36.94-50.80L36.94-50.80Q36.35-47.31 34.98-41.04L34.98-41.04L34.98-41.04Q33.62-34.78 31.37-25.48L31.37-25.48L31.37-25.48Q26.48-5.15 26.56-4.57L26.56-4.57L26.56-4.57Q26.56-4.40 26.81-4.40L26.81-4.40L26.81-4.40Q27.64-4.40 31.87-6.47L31.87-6.47L30.96-2.41L30.96-2.41Q29.47-1.25 26.23-0.08L26.23-0.08L26.23-0.08Q23.32 0.91 21.41 0.75L21.41 0.75L21.41 0.75Q21.08 0.75 21.08-0.25L21.08-0.25L21.08-0.25Q21.08-2.82 23.74-13.61L23.74-13.61L23.74-13.61Q24.57-16.77 25.32-19.84L25.32-19.84L25.32-19.84Q26.06-22.91 26.89-26.06L26.89-26.06L26.89-26.06Q27.56-28.97 28.26-31.96L28.26-31.96L28.26-31.96Q28.97-34.94 29.63-37.85L29.63-37.85L29.63-37.85Q31.37-45.15 31.37-46.81L31.37-46.81L31.37-46.81Q31.37-47.48 30.79-47.48L30.79-47.48L30.79-47.48Q30.71-47.48 30.13-47.35L30.13-47.35L30.13-47.35Q29.55-47.23 28.93-47.06L28.93-47.06L28.93-47.06Q28.30-46.90 27.76-46.73L27.76-46.73L27.76-46.73Q27.22-46.56 27.22-46.48L27.22-46.48L27.72-50.88L27.72-50.88Q30.13-51.54 31.91-51.88L31.91-51.88L31.91-51.88Q33.70-52.21 34.86-52.29L34.86-52.29L34.86-52.29Q35.77-52.46 36.40-52.04L36.40-52.04L36.40-52.04Q37.02-51.63 36.94-50.80ZM53.04-50.80L53.04-50.80L53.04-50.80Q52.46-47.31 51.09-41.04L51.09-41.04L51.09-41.04Q49.72-34.78 47.48-25.48L47.48-25.48L47.48-25.48Q42.58-5.15 42.66-4.57L42.66-4.57L42.66-4.57Q42.66-4.40 42.91-4.40L42.91-4.40L42.91-4.40Q43.74-4.40 47.97-6.47L47.97-6.47L47.06-2.41L47.06-2.41Q45.57-1.25 42.33-0.08L42.33-0.08L42.33-0.08Q39.43 0.91 37.52 0.75L37.52 0.75L37.52 0.75Q37.18 0.75 37.18-0.25L37.18-0.25L37.18-0.25Q37.18-2.82 39.84-13.61L39.84-13.61L39.84-13.61Q40.67-16.77 41.42-19.84L41.42-19.84L41.42-19.84Q42.16-22.91 42.99-26.06L42.99-26.06L42.99-26.06Q43.66-28.97 44.36-31.96L44.36-31.96L44.36-31.96Q45.07-34.94 45.73-37.85L45.73-37.85L45.73-37.85Q47.48-45.15 47.48-46.81L47.48-46.81L47.48-46.81Q47.48-47.48 46.90-47.48L46.90-47.48L46.90-47.48Q46.81-47.48 46.23-47.35L46.23-47.35L46.23-47.35Q45.65-47.23 45.03-47.06L45.03-47.06L45.03-47.06Q44.41-46.90 43.87-46.73L43.87-46.73L43.87-46.73Q43.33-46.56 43.33-46.48L43.33-46.48L43.82-50.88L43.82-50.88Q46.23-51.54 48.02-51.88L48.02-51.88L48.02-51.88Q49.80-52.21 50.96-52.29L50.96-52.29L50.96-52.29Q51.88-52.46 52.50-52.04L52.50-52.04L52.50-52.04Q53.12-51.63 53.04-50.80ZM81.09-32.20L86.49-32.20L86.49-32.20Q85.41-28.14 83.87-21.29L83.87-21.29L83.87-21.29Q82.34-14.44 80.26-4.65L80.26-4.65L80.26-4.65Q80.43-4.48 80.51-4.48L80.51-4.48L80.51-4.48Q80.68-4.48 81.13-4.69L81.13-4.69L81.13-4.69Q81.59-4.90 82.09-5.15L82.09-5.15L82.09-5.15Q82.59-5.40 83-5.64L83-5.64L83-5.64Q83.42-5.89 83.58-5.89L83.58-5.89L83.58-5.89Q83.91-5.31 84.25-2.41L84.25-2.41L84.25-2.41Q77.36 1.25 75.36 0.75L75.36 0.75L75.36 0.75Q74.45 0.58 74.45-0.83L74.45-0.83L74.45-0.83Q74.45-1.33 74.87-3.65L74.87-3.65L74.87-3.65Q69.72 0.83 62.83 0.75L62.83 0.75L62.83 0.75Q54.03 0.66 54.03-8.38L54.03-8.38L54.03-8.38Q54.03-11.62 55.03-16.52L55.03-16.52L55.03-16.52Q55.69-19.17 56.56-23.07L56.56-23.07L56.56-23.07Q57.44-26.98 58.60-32.20L58.60-32.20L64.33-32.20L64.33-32.20Q63.66-29.63 62.71-25.69L62.71-25.69L62.71-25.69Q61.75-21.75 60.51-16.43L60.51-16.43L60.51-16.43Q59.93-14.03 59.68-12.16L59.68-12.16L59.68-12.16Q59.43-10.29 59.43-9.13L59.43-9.13L59.43-9.13Q59.43-3.57 64.49-3.49L64.49-3.49L64.49-3.49Q68.81-3.40 72.63-5.98L72.63-5.98L72.63-5.98Q75.36-7.89 76.19-9.38L76.19-9.38L76.19-9.38Q76.36-10.13 77.61-15.81L77.61-15.81L77.61-15.81Q78.85-21.50 81.09-32.20L81.09-32.20ZM142.76-6.72L142.76-6.72L141.93-2.66L141.93-2.66Q140.27-1.41 137.20-0.42L137.20-0.42L137.20-0.42Q134.05 0.50 132.22 0.33L132.22 0.33L132.22 0.33Q131.72 0.33 131.72-1.08L131.72-1.08L131.72-1.08Q131.72-2.16 132.05-4.11L132.05-4.11L132.05-4.11Q132.39-6.06 133.05-8.88L133.05-8.88L133.05-8.88Q133.46-10.62 133.88-12.37L133.88-12.37L133.88-12.37Q134.29-14.11 134.71-15.85L134.71-15.85L134.71-15.85Q135.29-18.68 135.58-20.63L135.58-20.63L135.58-20.63Q135.87-22.58 135.87-23.74L135.87-23.74L135.87-23.74Q135.87-29.05 131.56-29.05L131.56-29.05L131.56-29.05Q126.82-29.05 120.18-23.99L120.18-23.99L120.18-23.99Q120.18-21.00 119.11-16.19L119.11-16.19L119.11-16.19Q118.28-12.20 117.49-8.18L117.49-8.18L117.49-8.18Q116.70-4.15 115.87 0.08L115.87 0.08L110.14 0L110.14 0Q110.81-2.66 111.68-6.76L111.68-6.76L111.68-6.76Q112.55-10.87 113.71-16.35L113.71-16.35L113.71-16.35Q114.13-18.76 114.37-20.50L114.37-20.50L114.37-20.50Q114.62-22.24 114.62-23.41L114.62-23.41L114.62-23.41Q114.62-29.13 109.98-29.30L109.98-29.30L109.98-29.30Q105.74-29.38 102.51-27.31L102.51-27.31L102.51-27.31Q101.84-26.73 101.09-26.15L101.09-26.15L101.09-26.15Q100.35-25.56 99.68-24.98L99.68-24.98L99.68-24.98Q98.44-18.92 97.15-12.70L97.15-12.70L97.15-12.70Q95.87-6.47 94.45 0L94.45 0L88.73 0L88.73 0Q89.72-3.98 91.34-11.00L91.34-11.00L91.34-11.00Q92.96-18.01 95.12-28.22L95.12-28.22L95.12-28.22Q94.95-28.39 94.62-28.39L94.62-28.39L94.62-28.39Q94.04-28.39 92.71-27.89L92.71-27.89L92.71-27.89Q91.13-27.39 91.55-31.79L91.55-31.79L91.55-31.79Q96.20-33.12 98.77-33.20L98.77-33.20L98.77-33.20Q99.60-33.28 100.22-32.87L100.22-32.87L100.22-32.87Q100.85-32.45 100.85-31.71L100.85-31.71L100.35-29.46L100.35-29.46Q105.41-33.53 111.64-33.53L111.64-33.53L111.64-33.53Q118.28-33.53 119.60-28.72L119.60-28.72L119.60-28.72Q121.10-29.96 124.00-31.37L124.00-31.37L124.00-31.37Q128.48-33.45 132.88-33.45L132.88-33.45L132.88-33.45Q136.95-33.45 138.94-31.62L138.94-31.62L138.94-31.62Q140.93-29.80 140.93-25.32L140.93-25.32L140.93-25.32Q140.93-23.57 140.60-21.29L140.60-21.29L140.60-21.29Q140.27-19.01 139.61-16.19L139.61-16.19L139.61-16.19Q137.45-6.39 137.45-5.31L137.45-5.31L137.45-5.31Q137.45-4.81 137.61-4.65L137.61-4.65L137.61-4.65Q138.20-4.40 142.76-6.72ZM159.86-42.25L159.86-42.25L159.86-42.25Q159.53-40.75 158.03-39.55L158.03-39.55L158.03-39.55Q156.54-38.35 154.96-38.35L154.96-38.35L154.96-38.35Q153.47-38.35 152.51-39.51L152.51-39.51L152.51-39.51Q151.56-40.67 151.89-42.25L151.89-42.25L151.89-42.25Q152.22-43.82 153.67-45.03L153.67-45.03L153.67-45.03Q155.13-46.23 156.62-46.23L156.62-46.23L156.62-46.23Q158.20-46.23 159.19-45.03L159.19-45.03L159.19-45.03Q160.19-43.82 159.86-42.25ZM157.12-31.37L157.12-31.37L157.12-31.37Q157.04-30.30 153.63-17.10L153.63-17.10L153.63-17.10Q150.56-4.65 150.73-4.57L150.73-4.57L150.73-4.57Q151.31-4.23 156.04-6.47L156.04-6.47L155.13-2.41L155.13-2.41Q153.63-1.25 150.40-0.08L150.40-0.08L150.40-0.08Q147.49 0.91 145.58 0.75L145.58 0.75L145.58 0.75Q145.08 0.66 145.08-0.42L145.08-0.42L145.08-0.42Q145.08-2.57 146.66-8.30L146.66-8.30L148.65-15.52L148.65-15.52Q151.48-26.89 151.48-27.47L151.48-27.47L151.48-27.47Q151.48-28.05 150.89-28.05L150.89-28.05L150.89-28.05Q150.73-28.05 150.19-27.93L150.19-27.93L150.19-27.93Q149.65-27.80 149.03-27.60L149.03-27.60L149.03-27.60Q148.40-27.39 147.91-27.22L147.91-27.22L147.91-27.22Q147.41-27.06 147.41-27.06L147.41-27.06L147.82-31.46L147.82-31.46Q150.31-32.12 152.10-32.41L152.10-32.41L152.10-32.41Q153.88-32.70 155.04-32.87L155.04-32.87L155.04-32.87Q155.96-33.03 156.58-32.58L156.58-32.58L156.58-32.58Q157.20-32.12 157.12-31.37ZM193.64-6.72L193.64-6.72L192.81-2.66L192.81-2.66Q191.15-1.41 188.08-0.42L188.08-0.42L188.08-0.42Q184.92 0.50 183.10 0.33L183.10 0.33L183.10 0.33Q182.60 0.33 182.60-1.08L182.60-1.08L182.60-1.08Q182.60-2.16 182.93-4.11L182.93-4.11L182.93-4.11Q183.26-6.06 183.93-8.88L183.93-8.88L183.93-8.88Q184.34-10.62 184.76-12.37L184.76-12.37L184.76-12.37Q185.17-14.11 185.59-15.85L185.59-15.85L185.59-15.85Q186.67-20.67 186.67-23.32L186.67-23.32L186.67-23.32Q186.67-29.13 182.10-29.22L182.10-29.22L182.10-29.22Q176.13-29.30 170.07-24.82L170.07-24.82L170.07-24.82Q168.82-18.84 167.54-12.66L167.54-12.66L167.54-12.66Q166.25-6.47 164.92 0L164.92 0L159.19 0L159.19 0Q160.19-3.98 161.81-11.00L161.81-11.00L161.81-11.00Q163.43-18.01 165.59-28.22L165.59-28.22L165.59-28.22Q165.42-28.39 165.09-28.39L165.09-28.39L165.09-28.39Q164.51-28.39 163.18-27.89L163.18-27.89L163.18-27.89Q161.60-27.39 162.02-31.79L162.02-31.79L162.02-31.79Q166.66-33.12 169.24-33.20L169.24-33.20L169.24-33.20Q170.07-33.28 170.69-32.87L170.69-32.87L170.69-32.87Q171.31-32.45 171.31-31.71L171.31-31.71L170.48-28.72L170.48-28.72Q171.98-29.96 174.88-31.37L174.88-31.37L174.88-31.37Q179.36-33.45 183.76-33.45L183.76-33.45L183.76-33.45Q187.83-33.45 189.82-31.62L189.82-31.62L189.82-31.62Q191.81-29.80 191.81-25.32L191.81-25.32L191.81-25.32Q191.81-23.57 191.48-21.29L191.48-21.29L191.48-21.29Q191.15-19.01 190.49-16.19L190.49-16.19L190.49-16.19Q188.33-6.39 188.33-5.31L188.33-5.31L188.33-5.31Q188.33-4.81 188.49-4.65L188.49-4.65L188.49-4.65Q189.07-4.40 193.64-6.72ZM237.55-33.12L238.96-28.80L238.96-28.80Q234.72-26.39 232.23-22.08L232.23-22.08L232.23-22.08Q230.57-19.17 230.16-16.27L230.16-16.27L230.16-16.27Q229.99-15.02 229.91-14.11L229.91-14.11L229.91-14.11Q229.83-13.20 229.83-12.53L229.83-12.53L229.83-12.53Q229.83-6.56 233.89-3.98L233.89-3.98L231.99 0.83L231.99 0.83Q229.66-0.08 228.08-1.99L228.08-1.99L228.08-1.99Q226.09-4.40 226.18-7.47L226.18-7.47L226.18-7.47Q223.77-3.32 219.20-1.25L219.20-1.25L219.20-1.25Q215.14 0.66 210.65 0.66L210.65 0.66L210.65 0.66Q204.18 0.66 200.69-3.24L200.69-3.24L200.69-3.24Q197.46-6.81 197.46-12.70L197.46-12.70L197.46-12.70Q197.46-13.70 197.58-14.69L197.58-14.69L197.58-14.69Q197.71-15.69 197.87-16.77L197.87-16.77L197.87-16.77Q199.28-23.99 204.43-28.39L204.43-28.39L204.43-28.39Q209.74-32.95 217.79-32.95L217.79-32.95L217.79-32.95Q222.52-32.95 225.47-30.59L225.47-30.59L225.47-30.59Q228.42-28.22 229.25-24.49L229.25-24.49L229.25-24.49Q229.50-25.90 230.24-27.22L230.24-27.22L230.24-27.22Q230.99-28.55 232.11-29.71L232.11-29.71L232.11-29.71Q233.23-30.88 234.64-31.75L234.64-31.75L234.64-31.75Q236.05-32.62 237.55-33.12L237.55-33.12ZM225.51-16.19L225.51-16.19L225.51-16.19Q225.76-17.26 225.76-18.51L225.76-18.51L225.76-18.51Q225.76-20.50 225.05-22.24L225.05-22.24L225.05-22.24Q224.35-23.99 223.15-25.27L223.15-25.27L223.15-25.27Q221.94-26.56 220.24-27.31L220.24-27.31L220.24-27.31Q218.54-28.05 216.55-28.05L216.55-28.05L216.55-28.05Q212.31-28.05 208.50-24.82L208.50-24.82L208.50-24.82Q204.26-21.25 203.43-16.35L203.43-16.35L203.43-16.35Q203.18-14.69 203.18-13.28L203.18-13.28L203.18-13.28Q203.18-9.05 205.38-6.60L205.38-6.60L205.38-6.60Q207.58-4.15 211.65-4.15L211.65-4.15L211.65-4.15Q216.55-4.15 220.37-7.47L220.37-7.47L220.37-7.47Q224.43-10.87 225.51-16.19ZM262.28-32.29L262.28-32.29L261.45-28.72L253.32-28.72L253.32-28.72Q252.90-26.81 252.11-23.45L252.11-23.45L252.11-23.45Q251.32-20.09 250.16-15.27L250.16-15.27L250.16-15.27Q247.51-4.65 247.75-4.57L247.75-4.57L247.75-4.57Q248.34-4.23 253.07-6.47L253.07-6.47L252.15-2.41L252.15-2.41Q250.66-1.25 247.42-0.08L247.42-0.08L247.42-0.08Q244.52 0.91 242.61 0.75L242.61 0.75L242.61 0.75Q242.03 0.66 242.03-0.83L242.03-0.83L242.03-0.83Q242.03-3.07 244.68-14.44L244.68-14.44L244.68-14.44Q245.27-17.02 247.92-28.64L247.92-28.64L243.11-28.64L243.11-28.64Q243.11-28.64 243.52-30.46L243.52-30.46L243.52-30.46Q243.85-32.20 248.75-32.20L248.75-32.20L248.75-32.20Q249.17-34.36 249.66-36.52L249.66-36.52L249.66-36.52Q250.16-38.68 250.58-40.84L250.58-40.84L256.39-42.99L254.06-32.20L254.06-32.20Q262.11-32.20 262.28-32.29ZM297.22-15.52L297.22-15.52L297.22-15.52Q295.65-7.72 289.67-3.32L289.67-3.32L289.67-3.32Q284.28 0.66 277.14 0.66L277.14 0.66L277.14 0.66Q270.66 0.66 266.93-3.24L266.93-3.24L266.93-3.24Q263.28-6.89 263.28-12.78L263.28-12.78L263.28-12.78Q263.28-14.69 263.77-16.85L263.77-16.85L263.77-16.85Q265.43-23.90 271.00-28.22L271.00-28.22L271.00-28.22Q276.72-32.70 284.28-32.70L284.28-32.70L284.28-32.70Q290.58-32.70 294.15-29.26L294.15-29.26L294.15-29.26Q297.72-25.81 297.72-19.84L297.72-19.84L297.72-19.84Q297.72-17.76 297.22-15.52ZM291.99-16.02L291.99-16.02L291.99-16.02Q292.41-17.93 292.41-19.34L292.41-19.34L292.41-19.34Q292.41-23.41 290.04-25.85L290.04-25.85L290.04-25.85Q287.68-28.30 283.45-28.30L283.45-28.30L283.45-28.30Q278.22-28.30 274.15-24.82L274.15-24.82L274.15-24.82Q270.00-21.33 268.92-16.10L268.92-16.10L268.92-16.10Q268.59-14.77 268.59-13.20L268.59-13.20L268.59-13.20Q268.59-8.96 271.20-6.43L271.20-6.43L271.20-6.43Q273.82-3.90 278.30-3.90L278.30-3.90L278.30-3.90Q283.28-3.90 287.01-7.18L287.01-7.18L287.01-7.18Q290.75-10.46 291.99-16.02ZM323.87-32.29L323.87-32.29L322.79-27.22L322.79-27.22Q321.63-28.30 320.55-28.30L320.55-28.30L320.55-28.30Q315.81-28.30 312.50-23.49L312.50-23.49L312.50-23.49Q310.50-20.75 309.51-17.18L309.51-17.18L309.51-17.18Q309.09-15.11 308.55-12.45L308.55-12.45L308.55-12.45Q308.01-9.79 307.35-6.39L307.35-6.39L307.35-6.39Q307.02-4.81 306.73-3.24L306.73-3.24L306.73-3.24Q306.44-1.66 306.10 0L306.10 0L300.46 0.08L300.46 0.08Q301.46-3.98 302.95-11.00L302.95-11.00L302.95-11.00Q304.44-18.01 306.52-28.14L306.52-28.14L306.52-28.14Q306.60-28.72 306.73-29.71L306.73-29.71L306.73-29.71Q306.85-30.71 307.10-32.20L307.10-32.20L312.58-32.20L311.33-26.73L311.33-26.73Q314.40-32.70 321.04-32.87L321.04-32.87L321.04-32.87Q322.70-32.87 323.87-32.29Z" fill="#212a2f"></path></g></g><style>text {
  font-size: 64px;
  font-family: Arial Black;
  dominant-baseline: central;
  text-anchor: middle;
}</style></svg>